<svg width="512" height="512" viewBox="0 0 512 512" fill="none" xmlns="http://www.w3.org/2000/svg">
  <rect width="512" height="512" rx="128" fill="#09090b"/>
  <!-- Left Pincer -->
  <path d="M140 140C140 140 100 100 80 160C60 220 120 240 140 220" stroke="white" stroke-width="40" stroke-linecap="round" stroke-linejoin="round"/>
  <!-- Right Pincer -->
  <path d="M372 140C372 140 412 100 432 160C452 220 392 240 372 220" stroke="white" stroke-width="40" stroke-linecap="round" stroke-linejoin="round"/>
  <!-- Body -->
  <path d="M128 280C128 280 160 240 256 240C352 240 384 280 384 280C384 280 400 360 256 360C112 360 128 280 128 280Z" fill="white"/>
  <!-- Legs -->
  <path d="M128 300L80 320" stroke="white" stroke-width="30" stroke-linecap="round"/>
  <path d="M136 340L90 370" stroke="white" stroke-width="30" stroke-linecap="round"/>
  <path d="M384 300L432 320" stroke="white" stroke-width="30" stroke-linecap="round"/>
  <path d="M376 340L422 370" stroke="white" stroke-width="30" stroke-linecap="round"/>
</svg>
